<svg xmlns="http://www.w3.org/2000/svg" width="1200" height="420" viewBox="0 0 1200 420" role="img" aria-labelledby="title desc">
  <title id="title">Patternpilot onboarding map</title>
  <desc id="desc">A simple four-step onboarding map for new Patternpilot users.</desc>
  <defs>
    <style>
      .bg { fill: #f8fafc; }
      .card { fill: #ffffff; stroke: #d7dee7; stroke-width: 2; }
      .title { font: 700 30px Arial, sans-serif; fill: #17324d; }
      .stepTitle { font: 700 18px Arial, sans-serif; fill: #17324d; }
      .stepText { font: 400 15px Arial, sans-serif; fill: #4d5e70; }
      .commandBox { fill: #eef4fb; stroke: #d5dfeb; stroke-width: 1.5; }
      .commandText { font: 700 14px 'Courier New', monospace; fill: #24486d; }
      .num { font: 700 20px Arial, sans-serif; fill: #205f3c; }
      .numBg { fill: #ddf1e4; }
      .arrow { stroke: #89a1b6; stroke-width: 3; fill: none; marker-end: url(#marker); }
    </style>
    <marker id="marker" markerWidth="10" markerHeight="10" refX="8" refY="5" orient="auto">
      <path d="M0,0 L10,5 L0,10 z" fill="#89a1b6"/>
    </marker>
  </defs>

  <rect width="1200" height="420" rx="28" class="bg"/>
  <text x="70" y="64" class="title">Der einfachste Start</text>
  <text x="70" y="94" class="stepText">Jede Box zeigt den passenden Befehl und in einem Satz, was er fuer dich tut.</text>

  <rect x="60" y="130" width="245" height="200" rx="22" class="card"/>
  <circle cx="100" cy="158" r="20" class="numBg"/>
  <text x="100" y="165" text-anchor="middle" class="num">1</text>
  <text x="130" y="165" class="stepTitle">Installieren</text>
  <rect x="88" y="194" width="188" height="34" rx="10" class="commandBox"/>
  <text x="182" y="216" text-anchor="middle" class="commandText">npm install</text>
  <text x="88" y="255" class="stepText">Laedt die CLI und alles,</text>
  <text x="88" y="278" class="stepText">was sie zum Start braucht.</text>

  <rect x="335" y="130" width="245" height="200" rx="22" class="card"/>
  <circle cx="375" cy="158" r="20" class="numBg"/>
  <text x="375" y="165" text-anchor="middle" class="num">2</text>
  <text x="405" y="165" class="stepTitle">Projekt binden</text>
  <rect x="363" y="194" width="188" height="34" rx="10" class="commandBox"/>
  <text x="457" y="216" text-anchor="middle" class="commandText">npm run bootstrap</text>
  <text x="363" y="255" class="stepText">Verbindet dein eigenes</text>
  <text x="363" y="278" class="stepText">Projekt mit Patternpilot.</text>

  <rect x="610" y="130" width="255" height="200" rx="22" class="card"/>
  <circle cx="650" cy="158" r="20" class="numBg"/>
  <text x="650" y="165" text-anchor="middle" class="num">3</text>
  <text x="680" y="160" class="stepTitle">
    <tspan x="680" dy="0">Ersten Fund</tspan>
    <tspan x="680" dy="22">anlegen</tspan>
  </text>
  <rect x="638" y="206" width="198" height="34" rx="10" class="commandBox"/>
  <text x="737" y="228" text-anchor="middle" class="commandText">npm run intake</text>
  <text x="638" y="267" class="stepText">Legt den ersten Repo-Fund</text>
  <text x="638" y="290" class="stepText">sauber in deinem Flow an.</text>

  <rect x="895" y="130" width="245" height="200" rx="22" class="card"/>
  <circle cx="935" cy="158" r="20" class="numBg"/>
  <text x="935" y="165" text-anchor="middle" class="num">4</text>
  <text x="965" y="160" class="stepTitle">
    <tspan x="965" dy="0">Naechsten Schritt</tspan>
    <tspan x="965" dy="22">lesen</tspan>
  </text>
  <rect x="923" y="206" width="188" height="34" rx="10" class="commandBox"/>
  <text x="1017" y="228" text-anchor="middle" class="commandText">npm run release:check</text>
  <text x="923" y="267" class="stepText">Zeigt dir klar, was als</text>
  <text x="923" y="290" class="stepText">naechstes wirklich dran ist.</text>

  <path d="M305 230 H335" class="arrow"/>
  <path d="M580 230 H610" class="arrow"/>
  <path d="M865 230 H895" class="arrow"/>
</svg>
