<svg xmlns="http://www.w3.org/2000/svg" width="1280" height="440" viewBox="0 0 1280 440" role="img" aria-labelledby="title desc">
  <title id="title">Patternpilot workflow overview</title>
  <desc id="desc">A simple five-step overview of how Patternpilot connects your project, inspects external repositories, reviews them, and turns them into decisions.</desc>
  <defs>
    <linearGradient id="bg" x1="0" y1="0" x2="1" y2="1">
      <stop offset="0%" stop-color="#f6f8fb"/>
      <stop offset="100%" stop-color="#eef5f1"/>
    </linearGradient>
    <style>
      .title { font: 700 34px Arial, sans-serif; fill: #112233; }
      .subtitle { font: 400 18px Arial, sans-serif; fill: #425466; }
      .step { fill: #ffffff; stroke: #cad5df; stroke-width: 2; }
      .stepTitle { font: 700 19px Arial, sans-serif; fill: #17324d; }
      .stepText { font: 400 15px Arial, sans-serif; fill: #425466; }
      .pill { fill: #d8efe1; }
      .pillText { font: 700 14px Arial, sans-serif; fill: #205f3c; }
      .arrow { stroke: #7b8b9c; stroke-width: 3; fill: none; marker-end: url(#marker); }
    </style>
    <marker id="marker" markerWidth="10" markerHeight="10" refX="8" refY="5" orient="auto">
      <path d="M0,0 L10,5 L0,10 z" fill="#7b8b9c"/>
    </marker>
  </defs>

  <rect width="1280" height="440" rx="28" fill="url(#bg)"/>
  <text x="70" y="72" class="title">Patternpilot in 5 Schritten</text>
  <text x="70" y="104" class="subtitle">Von deinem Projektkontext zu klaren Repo-Entscheidungen.</text>

  <rect x="60" y="150" width="205" height="190" rx="22" class="step"/>
  <rect x="80" y="168" width="68" height="28" rx="14" class="pill"/>
  <text x="114" y="187" text-anchor="middle" class="pillText">1 START</text>
  <text x="80" y="228" class="stepTitle">Bootstrap</text>
  <text x="80" y="260" class="stepText">Verbinde dein</text>
  <text x="80" y="283" class="stepText">Zielrepo mit</text>
  <text x="80" y="306" class="stepText">Patternpilot.</text>

  <rect x="290" y="150" width="205" height="190" rx="22" class="step"/>
  <rect x="310" y="168" width="68" height="28" rx="14" class="pill"/>
  <text x="344" y="187" text-anchor="middle" class="pillText">2 INPUT</text>
  <text x="310" y="228" class="stepTitle">Intake</text>
  <text x="310" y="260" class="stepText">Einzelrepos oder</text>
  <text x="310" y="283" class="stepText">eine Watchlist</text>
  <text x="310" y="306" class="stepText">landen sauber im Flow.</text>

  <rect x="520" y="150" width="205" height="190" rx="22" class="step"/>
  <rect x="540" y="168" width="76" height="28" rx="14" class="pill"/>
  <text x="578" y="187" text-anchor="middle" class="pillText">3 REVIEW</text>
  <text x="540" y="228" class="stepTitle">Bewerten</text>
  <text x="540" y="260" class="stepText">Patternpilot fragt:</text>
  <text x="540" y="283" class="stepText">relevant, beobachten</text>
  <text x="540" y="306" class="stepText">oder bewusst lassen?</text>

  <rect x="750" y="150" width="205" height="190" rx="22" class="step"/>
  <rect x="770" y="168" width="94" height="28" rx="14" class="pill"/>
  <text x="817" y="187" text-anchor="middle" class="pillText">4 OUTPUT</text>
  <text x="770" y="228" class="stepTitle">Ergebnisse</text>
  <text x="770" y="260" class="stepText">Reviews, Reports</text>
  <text x="770" y="283" class="stepText">und Promotions</text>
  <text x="770" y="306" class="stepText">werden lesbar abgelegt.</text>

  <rect x="980" y="150" width="225" height="190" rx="22" class="step"/>
  <rect x="1000" y="168" width="84" height="28" rx="14" class="pill"/>
  <text x="1042" y="187" text-anchor="middle" class="pillText">5 NEXT</text>
  <text x="1000" y="228" class="stepTitle">
    <tspan x="1000" dy="0">Naechster</tspan>
    <tspan x="1000" dy="22">Schritt</tspan>
  </text>
  <text x="1000" y="274" class="stepText">Readiness und</text>
  <text x="1000" y="297" class="stepText">Control sagen dir,</text>
  <text x="1000" y="320" class="stepText">was jetzt dran ist.</text>

  <path d="M265 245 H290" class="arrow"/>
  <path d="M495 245 H520" class="arrow"/>
  <path d="M725 245 H750" class="arrow"/>
  <path d="M955 245 H980" class="arrow"/>
</svg>
